<svg xmlns="http://www.w3.org/2000/svg" width="14.999" height="21" viewBox="0 0 14.999 21">

  <path id="Forma_1" data-name="Forma 1" d="M1.58,22A1.593,1.593,0,0,1,0,20.393V11.9a1.594,1.594,0,0,1,1.58-1.607H13.42A1.594,1.594,0,0,1,15,11.9v8.5A1.593,1.593,0,0,1,13.42,22Zm4.1-5.657a1.815,1.815,0,0,0,1.3,1.754v1.419a.5.5,0,1,0,1,0V18.1A1.831,1.831,0,0,0,9.2,15.836a1.792,1.792,0,0,0-1.724-1.323A1.814,1.814,0,0,0,5.676,16.342Zm1-.01a.8.8,0,1,1,.8.816A.809.809,0,0,1,6.673,16.332Zm4.934-7.057V5.855A3.7,3.7,0,0,0,10.365,3.09,4.232,4.232,0,0,0,7.51,2H7.48A4.008,4.008,0,0,0,3.334,5.851V9.275h-1.1V5.855h.005A5.065,5.065,0,0,1,7.475,1H7.48a5.411,5.411,0,0,1,3.658,1.381A4.648,4.648,0,0,1,12.7,5.855v3.42Z" transform="translate(0 -1)" fill="#e44e98"/>
</svg>
