<svg id="message-circle" xmlns="http://www.w3.org/2000/svg" width="14.538" height="14.538" viewBox="0 0 14.538 14.538">
  <g id="Shape" transform="translate(0 0)" fill="#e44e98" stroke-linecap="round" stroke-linejoin="round" stroke-miterlimit="10">
    <path d="M 1.185847759246826 13.35263729095459 L 2.246120929718018 10.17180442810059 L 2.34493088722229 9.875384330749512 L 2.204060792922974 9.596494674682617 C 1.778740763664246 8.754444122314453 1.555230855941772 7.810724258422852 1.557690858840942 6.867364406585693 C 1.558130860328674 5.729404449462891 1.874270796775818 4.617974281311035 2.471920728683472 3.651554346084595 C 3.069570779800415 2.685134172439575 3.922730922698975 1.90580427646637 4.939140796661377 1.397824168205261 C 5.779191017150879 0.9735242128372192 6.717480659484863 0.7500042319297791 7.655430793762207 0.7500042319297791 L 7.671120643615723 0.7500241994857788 L 8.05567741394043 0.7500241994857788 C 11.14848518371582 0.9305877685546875 13.60789680480957 3.389999866485596 13.78846073150635 6.482808113098145 L 13.78846073150635 6.86540412902832 C 13.79092121124268 7.810724258422852 13.56741046905518 8.754444122314453 13.14209079742432 9.596494674682617 C 12.63267040252686 10.61575412750244 11.85335063934326 11.46890449523926 10.88693046569824 12.06656455993652 C 9.920511245727539 12.66421413421631 8.809081077575684 12.98035430908203 7.672791004180908 12.98079395294189 L 7.655430793762207 12.98081398010254 C 6.717480659484863 12.98081398010254 5.779191017150879 12.75729465484619 4.941990852355957 12.33442401885986 L 4.663100719451904 12.19355392456055 L 4.36668062210083 12.2923641204834 L 1.185847759246826 13.35263729095459 Z" stroke="none"/>
    <path d="M 7.655430793762207 1.500003814697266 C 6.834360599517822 1.500003814697266 6.01300048828125 1.695664405822754 5.280130386352539 2.065844535827637 C 5.278241157531738 2.066794395446777 5.276340484619141 2.067753791809082 5.274431228637695 2.068704605102539 C 4.382670402526855 2.514384269714355 3.634150505065918 3.198134422302246 3.109801292419434 4.04603385925293 C 2.585440635681152 4.89393424987793 2.308080673217773 5.869053840637207 2.307681083679199 6.869314193725586 C 2.305530548095703 7.69512414932251 2.501191139221191 8.521244049072266 2.873510360717773 9.258354187011719 C 3.053820610046387 9.615344047546387 3.084111213684082 10.02955436706543 2.957640647888184 10.40897369384766 L 2.371707916259766 12.16677951812744 L 4.129510879516602 11.58084392547607 C 4.508930206298828 11.45436382293701 4.923151016235352 11.48465442657471 5.28014087677002 11.66497421264648 C 6.01300048828125 12.03515434265137 6.834360599517822 12.23081398010254 7.655430793762207 12.23081398010254 L 7.672500610351562 12.23079395294189 C 8.669430732727051 12.23040390014648 9.644550323486328 11.95304393768311 10.49245071411133 11.42868423461914 C 11.34035110473633 10.90432453155518 12.02410125732422 10.15580368041992 12.46978092193604 9.264043807983398 C 12.47073078155518 9.262144088745117 12.4716911315918 9.26025390625 12.47264099121094 9.258354187011719 C 12.84496116638184 8.521244049072266 13.04062080383301 7.69512414932251 13.03846073150635 6.86540412902832 L 13.03846073150635 6.505385398864746 C 12.87046432495117 3.810102462768555 10.72838306427002 1.668021202087402 8.033100128173828 1.50002384185791 L 7.673080921173096 1.50002384185791 C 7.671391010284424 1.50002384185791 7.669700622558594 1.50002384185791 7.668010711669922 1.500014305114746 L 7.655430793762207 1.500003814697266 M 7.655426979064941 9.5367431640625e-07 C 7.661347389221191 9.5367431640625e-07 7.667159557342529 8.58306884765625e-06 7.673080921173096 2.384185791015625e-05 L 8.076921463012695 2.384185791015625e-05 C 11.56277084350586 0.1923341751098633 14.34615039825439 2.975714683532715 14.53846073150635 6.461564064025879 L 14.53846073150635 6.86540412902832 C 14.54124069213867 7.931454181671143 14.29217052459717 8.983083724975586 13.8115406036377 9.934634208679199 C 12.64924049377441 12.26024436950684 10.2729606628418 13.72978401184082 7.673080921173096 13.73079395294189 C 6.607014656066895 13.73356628417969 5.555400848388672 13.48450469970703 4.603850364685059 13.00386428833008 L 9.5367431640625e-07 14.53848457336426 L 1.534610748291016 9.934634208679199 C 1.053980827331543 8.983083724975586 0.8049106597900391 7.931454181671143 0.8076906204223633 6.86540412902832 C 0.8087005615234375 4.265523910522461 2.278230667114258 1.889244079589844 4.603850364685059 0.7269439697265625 C 5.550115585327148 0.2489833831787109 6.595459938049316 9.5367431640625e-07 7.655426979064941 9.5367431640625e-07 Z" stroke="none" fill="#e44e98"/>
  </g>
</svg>
