<svg xmlns="http://www.w3.org/2000/svg" width="17" height="17" viewBox="0 0 17 17">
  <path id="Forma_1" data-name="Forma 1" d="M8.965,12.982A4.018,4.018,0,1,1,12.982,17,4.022,4.022,0,0,1,8.965,12.982Zm1.328,0a2.689,2.689,0,1,0,2.689-2.689A2.693,2.693,0,0,0,10.293,12.982ZM2.656,17A2.659,2.659,0,0,1,0,14.344V3.984A2.659,2.659,0,0,1,2.656,1.328h.83V.664a.664.664,0,1,1,1.328,0v.664H7.8V.664a.664.664,0,0,1,1.328,0v.664h3.022V.664a.664.664,0,0,1,1.328,0v.664h.863A2.659,2.659,0,0,1,17,3.984V7.77a.664.664,0,0,1-1.328,0V3.984a1.33,1.33,0,0,0-1.328-1.328h-.863V3.32a.664.664,0,1,1-1.328,0V2.656H9.131V3.32a.664.664,0,0,1-1.328,0V2.656H4.814V3.32a.664.664,0,1,1-1.328,0V2.656h-.83A1.33,1.33,0,0,0,1.328,3.984V14.344a1.33,1.33,0,0,0,1.328,1.328h5.08a.664.664,0,0,1,0,1.328Zm10.326-3.354a.664.664,0,0,1-.664-.664V11.621a.664.664,0,0,1,1.328,0v.7h.3a.664.664,0,0,1,0,1.328Zm-6.607-.9a.664.664,0,1,1,.664.664A.664.664,0,0,1,6.375,12.75Zm-2.889,0a.664.664,0,1,1,.664.664A.664.664,0,0,1,3.486,12.75ZM6.375,9.861a.664.664,0,1,1,.664.664A.664.664,0,0,1,6.375,9.861Zm-2.889,0a.664.664,0,1,1,.664.664A.664.664,0,0,1,3.486,9.861Zm8.666-2.889a.664.664,0,1,1,.664.664A.664.664,0,0,1,12.152,6.973Zm-2.889,0a.664.664,0,1,1,.664.664A.664.664,0,0,1,9.264,6.973Zm-2.889,0a.664.664,0,1,1,.664.664A.664.664,0,0,1,6.375,6.973Zm-2.889,0a.664.664,0,1,1,.664.664A.664.664,0,0,1,3.486,6.973Z" fill="#e44e98"/>
</svg>
